<?xml version="1.0" encoding="UTF-8" standalone="no"?>
<!DOCTYPE svg PUBLIC "-//W3C//DTD SVG 20010904//EN"
"http://www.w3.org/TR/2001/REC-SVG-20010904/DTD/svg10.dtd">
<!-- Created with Sodipodi ("http://www.sodipodi.com/") -->
<svg
   xmlns="http://www.w3.org/2000/svg"
   xmlns:sodipodi="http://sodipodi.sourceforge.net/DTD/sodipodi-0.dtd"
   xmlns:xlink="http://www.w3.org/1999/xlink"
   id="svg548"
   sodipodi:version="0.34"
   width="20cm"
   height="20cm"
   sodipodi:docbase="/home/bk/kde/kdeextragear-1/gwenview/pics/app"
   sodipodi:docname="/home/bk/kde/kdeextragear-1/gwenview/pics/app/gwenview_hack.svg">
  <defs
     id="defs550">
    <linearGradient
       id="linearGradient600">
      <stop
         style="stop-color:#9a9faa;stop-opacity:0;"
         offset="0.000000"
         id="stop601" />
      <stop
         style="stop-color:#9a9faa;stop-opacity:0.772549;"
         offset="1.000000"
         id="stop602" />
    </linearGradient>
    <linearGradient
       id="linearGradient597">
      <stop
         style="stop-color:#9a9faa;stop-opacity:0.772549;"
         offset="0.000000"
         id="stop598" />
      <stop
         style="stop-color:#000000;stop-opacity:0;"
         offset="1.000000"
         id="stop599" />
    </linearGradient>
    <linearGradient
       id="linearGradient581">
      <stop
         style="stop-color:#9a9faa;stop-opacity:0.772549;"
         offset="0.000000"
         id="stop582" />
      <stop
         style="stop-color:#000000;stop-opacity:0;"
         offset="1.000000"
         id="stop583" />
    </linearGradient>
    <linearGradient
       id="linearGradient574">
      <stop
         style="stop-color:#ffffff;stop-opacity:1.0000;"
         offset="0"
         id="stop575" />
      <stop
         style="stop-color:#ffffff;stop-opacity:0;"
         offset="1.000000"
         id="stop576" />
    </linearGradient>
    <linearGradient
       id="linearGradient569">
      <stop
         style="stop-color:#ffffff;stop-opacity:1;"
         offset="0.000000"
         id="stop570" />
      <stop
         style="stop-color:#ffffff;stop-opacity:0;"
         offset="1.000000"
         id="stop571" />
    </linearGradient>
    <linearGradient
       id="linearGradient564">
      <stop
         style="stop-color:#00001d;stop-opacity:1;"
         offset="0"
         id="stop565" />
      <stop
         style="stop-color:#1a1752;stop-opacity:1;"
         offset="1"
         id="stop566" />
    </linearGradient>
    <linearGradient
       id="linearGradient554">
      <stop
         style="stop-color:#ff0000;stop-opacity:0.6;"
         offset="0.000000"
         id="stop555" />
      <stop
         style="stop-color:#ff00ff;stop-opacity:1;"
         offset="0.1428"
         id="stop580" />
      <stop
         style="stop-color:#4444ff;stop-opacity:1;"
         offset="0.2857"
         id="stop584" />
      <stop
         style="stop-color:#00ffff;stop-opacity:1;"
         offset="0.4285"
         id="stop585" />
      <stop
         style="stop-color:#00ff00;stop-opacity:1;"
         offset="0.5714"
         id="stop581" />
      <stop
         style="stop-color:#ffff00;stop-opacity:1;"
         offset="0.8571"
         id="stop556" />
      <stop
         style="stop-color:#ff0000;stop-opacity:0.6;"
         offset="1"
         id="stop588" />
    </linearGradient>
    <linearGradient
       xlink:href="#linearGradient554"
       id="linearGradient557" />
    <linearGradient
       xlink:href="#linearGradient564"
       id="linearGradient563"
       x1="0.50381684"
       y1="6.25e-2"
       x2="0.50381684"
       y2="0.8984375" />
    <linearGradient
       xlink:href="#linearGradient569"
       id="linearGradient568"
       x1="0.50259072"
       y1="0.04686115"
       x2="0.50259072"
       y2="0.66406244"
       gradientUnits="objectBoundingBox"
       spreadMethod="pad" />
    <linearGradient
       xlink:href="#linearGradient574"
       id="linearGradient573"
       x1="0.23588039"
       y1="0.07778165"
       x2="0.29235879"
       y2="0.74444467"
       gradientUnits="objectBoundingBox"
       spreadMethod="pad" />
    <linearGradient
       xlink:href="#linearGradient569"
       id="linearGradient584"
       x1="7.56570101e-2"
       y1="0.14844139"
       x2="0.72268951"
       y2="0.78125006" />
    <radialGradient
       xlink:href="#linearGradient600"
       id="radialGradient589"
       cx="0.07547167"
       cy="0.32031244"
       fx="0.07547167"
       fy="0.32031244"
       r="1.22002280"
       gradientUnits="objectBoundingBox"
       spreadMethod="pad" />
  </defs>
  <sodipodi:namedview
     id="base" />
  <path
     style="fill:none;fill-rule:evenodd;stroke:#b75c29;stroke-opacity:1;stroke-width:25;stroke-linejoin:round;stroke-linecap:round;fill-opacity:1;stroke-dasharray:none;"
     d="M 577.6373 124.4914 C 595.896 102.9131 625.039 49.50179 650.6721 61.41611 C 710.5137 90.89065 624.6861 181.8723 667.2709 192.5466 "
     id="path654"
     sodipodi:nodetypes="css" />
  <path
     style="font-size:12;fill:url(#linearGradient563);fill-rule:evenodd;stroke:#000000;stroke-width:10;stroke-dasharray:none;"
     d="M 566.0262 73.06553 L 521.5887 126.6906 C 474.7762 96.87805 418.7137 79.69053 358.5262 79.69053 C 193.5262 79.69053 59.77622 209.0031 59.77622 368.5031 C 59.77622 528.0031 193.5262 657.3156 358.5262 657.3156 C 523.5262 657.3156 657.3387 528.0031 657.3387 368.5031 C 657.3387 295.1906 629.0887 228.3156 582.3387 177.6281 L 630.7762 126.1281 L 566.0262 73.06553 z "
     id="path652" />
  <path
     style="fill:#838383;fill-rule:evenodd;stroke:none;stroke-opacity:1;stroke-width:1pt;stroke-linejoin:miter;stroke-linecap:butt;fill-opacity:0.5556;"
     d="M 267.9742 640.8715 C 309.9082 658.3905 448.5552 678.8945 557.5452 580.6765 C 664.3352 483.3845 660.2793 360.7625 648.9972 306.2115 C 642.6642 486.3365 552.9016 532.7939 534.4616 548.5419 C 508.7046 569.3339 467.5162 658.9275 267.9742 640.8715 z "
     id="path595"
     sodipodi:nodetypes="cscsc" />
  <path
     sodipodi:type="arc"
     style="fill-rule:evenodd;stroke:none;fill:url(#linearGradient568);fill-opacity:1;stroke-opacity:1;stroke-width:1pt;stroke-linejoin:miter;stroke-linecap:butt;"
     id="path567"
     d="M 605.8553 378.4519 A 227.4032 141.0896 0 1 0 151.0489 378.4519 A 227.4032 141.0896 0 1 0  605.8553 378.4519 z"
     sodipodi:cx="378.452087"
     sodipodi:cy="378.451904"
     sodipodi:rx="227.403214"
     sodipodi:ry="141.089554"
     transform="matrix(1,0,0,1.076471,-18.25867,-167.5399)" />
  <g
     id="g577"
     transform="translate(-16.59878,-192.4593)"
     style="opacity:0.9900;">
    <path
       style="fill:url(#linearGradient557);fill-rule:evenodd;stroke:black;stroke-opacity:1;stroke-width:12.835;troke-linejoin:miter;stroke-linecap:butt;fill-opacity:1;stroke-dasharray:none;opacity:0.9900;"
       d="M 698.809 461.446 C 526.093 418.267 219.216 417.415 49.7963 464.766 C 3.43211 477.724 15.7293 614.755 51.4562 642.372 C 105.916 684.47 268.912 704.841 320.356 673.91 C 356.333 652.279 391.578 654.562 428.249 673.91 C 481.765 702.145 644.14 671.666 700.468 627.433 C 734.326 600.845 742.983 472.49 698.809 461.446 z "
       id="path553"
       sodipodi:nodetypes="cssssss"
       transform="matrix(0.948519,0.000000,0.000000,1.000000,19.26883,-1.831055e-4)" />
    <path
       style="fill:url(#linearGradient573);fill-rule:evenodd;stroke:none;stroke-opacity:1;stroke-width:5;stroke-linejoin:miter;stroke-linecap:butt;fill-opacity:0.522222;stroke-dasharray:none;"
       d="M 698.809 461.446 C 522.529 417.376 222.908 416.384 49.7963 464.766 C 7.12389 476.692 17.9313 616.457 51.4562 642.372 C 108.118 686.172 266.751 706.141 320.356 673.91 C 354.171 653.578 393.772 655.72 428.249 673.91 C 483.959 703.302 642.015 673.335 700.468 627.433 C 732.201 602.514 739.42 471.599 698.809 461.446 z "
       id="path572"
       sodipodi:nodetypes="cssssss"
       transform="matrix(0.918366,0.000000,0.000000,0.935584,30.59124,37.22012)" />
  </g>
  <path
     style="fill:#868686;fill-rule:evenodd;stroke:none;stroke-opacity:1;stroke-width:1pt;stroke-linejoin:miter;stroke-linecap:butt;fill-opacity:0.6375;"
     d="M 404.3762 499.5166 C 407.5602 493.7246 399.7262 480.9366 386.9902 478.8006 C 383.6072 493.5526 381.8052 500.0026 356.6842 516.3536 C 364.6332 521.2326 400.4752 507.0896 404.3762 499.5166 z "
     id="path594"
     sodipodi:nodetypes="cccs" />
  <path
     style="fill:#868686;fill-rule:evenodd;stroke:none;stroke-opacity:1;stroke-width:1pt;stroke-linejoin:miter;stroke-linecap:butt;fill-opacity:0.6375;"
     d="M 359.4097 583.4745 C 376.7986 583.4354 408.579 573.0436 422.5944 563.0767 C 395.5423 561.6681 325.4769 558.4429 292.3904 565.2621 C 311.7712 574.4559 340.9402 583.5267 359.4097 583.4745 z "
     id="path605"
     sodipodi:nodetypes="cccs" />
  <g
     id="g560"
     transform="translate(-14.93912,-180.1181)"
     style="opacity:0.4288;">
    <path
       sodipodi:type="arc"
       style="fill-rule:evenodd;stroke:none;fill:#000000;fill-opacity:1;stroke-opacity:1;stroke-width:1pt;stroke-linejoin:miter;stroke-linecap:butt;"
       id="path558"
       d="M 282.1792 603.3654 A 37.34726 34.0275 0 1 0 207.4847 603.3654 A 37.34726 34.0275 0 1 0  282.1792 603.3654 z"
       sodipodi:cx="244.831940"
       sodipodi:cy="603.365356"
       sodipodi:rx="37.347260"
       sodipodi:ry="34.027496"
       transform="translate(24.89817,-11.61914)" />
    <path
       sodipodi:type="arc"
       style="fill-rule:evenodd;stroke:none;fill:#000000;fill-opacity:1;stroke-opacity:1;stroke-width:1pt;stroke-linejoin:miter;stroke-linecap:butt;"
       id="path559"
       d="M 282.1792 603.3654 A 37.34726 34.0275 0 1 0 207.4847 603.3654 A 37.34726 34.0275 0 1 0  282.1792 603.3654 z"
       sodipodi:cx="244.831940"
       sodipodi:cy="603.365356"
       sodipodi:rx="37.347260"
       sodipodi:ry="34.027496"
       transform="translate(232.3829,-11.61914)" />
  </g>
  <path
     style="fill:url(#linearGradient584);fill-rule:evenodd;stroke:black;stroke-opacity:1;stroke-width:1pt;stroke-linejoin:miter;stroke-linecap:butt;fill-opacity:1;"
     d="M 567.6782 78.01483 L 536.1405 121.1717 L 567.6782 147.7298 L 602.5355 107.8928 L 567.6782 78.01483 z "
     id="path653"
     sodipodi:nodetypes="ccccc" />
</svg>
